<svg xmlns="http://www.w3.org/2000/svg" width="462" height="462" viewBox="0 0 462 462">
  <defs>
    <style>
      .cls-1 {
        fill: #fff;
        fill-rule: evenodd;
      }
    </style>
  </defs>
  <path id="Color_Fill_1" data-name="Color Fill 1" class="cls-1" d="M424,34h2L405,55c-24.075,32.074-29.307,75.719-37,125-9.38,60.091,10.55,137.947-15,180-7.775,12.8-52.767,54.374-76,41,19.709-4.59,17-44.747,17-69q0.5-102.99,1-206c8.27-42.512,42.567-63.751,80-77ZM31,35c65.66,9.714,123.825,36.627,135,102q-0.5,80.492-1,161c-0.007,25.747-.415,61.7,30,55,25.25-5.563,42.1-68.123,36-106q-4-31.5-8-63c-15.363-56.241-39.357-101.992-68-144l1-1c48.765,30.177,94.615,66.424,113,127,26.508,87.339-18.887,221.4-85,234-22.467,4.281-41.513-5.292-53-13-67.28-45.146-25.042-139.546-41-232C78.311,87.28,69.145,74.943,31,35Z"/>
</svg>
